<svg width="500" height="300" viewBox="0 0 500 300" fill="none" xmlns="http://www.w3.org/2000/svg">
<path fill-rule="evenodd" clip-rule="evenodd" d="M108.959 176.585C111.535 177.082 114.436 179.007 116.94 181.947C120.531 180.527 123.996 180.189 126.504 180.959C126.007 183.535 124.082 186.436 121.142 188.94C122.562 192.531 122.9 195.997 122.129 198.504C119.554 198.007 116.653 196.082 114.149 193.142C110.557 194.562 107.092 194.9 104.585 194.129C105.081 191.554 107.007 188.653 109.947 186.149C108.527 182.558 108.189 179.092 108.959 176.585ZM370.219 154.212C373.441 156.219 376.361 160.324 378.219 165.594C383.807 165.537 388.663 166.878 391.65 169.219C389.644 172.441 385.539 175.361 380.269 177.219C380.325 182.807 378.985 187.663 376.644 190.65C373.422 188.644 370.502 184.539 368.644 179.269C363.056 179.325 358.2 177.985 355.212 175.644C357.219 172.422 361.324 169.502 366.594 167.644C366.537 162.056 367.878 157.2 370.219 154.212ZM164.715 58.3365C166.84 59.8749 168.655 62.8459 169.682 66.5688C173.537 66.7993 176.821 67.9574 178.767 69.7155C177.229 71.8399 174.258 73.6554 170.535 74.6824C170.305 78.5374 169.146 81.8209 167.388 83.7674C165.264 82.229 163.448 79.258 162.421 75.5351C158.566 75.3046 155.283 74.1465 153.336 72.3884C154.875 70.264 157.846 68.4485 161.569 67.4215C161.799 63.5665 162.957 60.283 164.715 58.3365Z" fill="#D5EDF1"/>
<path fill-rule="evenodd" clip-rule="evenodd" d="M326.031 88.8487L214.728 156.8C214.728 156.8 212.942 168.464 214.621 182.395C216.299 196.327 224.872 214.235 224.872 214.235L273.639 177.502L326.031 88.8487Z" fill="white" stroke="#A3BFC6" stroke-width="3" stroke-linecap="round"/>
<path fill-rule="evenodd" clip-rule="evenodd" d="M329.235 98.2386L237.356 167.185C237.356 167.185 236.776 175.226 233.514 189.416C230.219 203.749 227.228 212.777 227.228 212.777C227.228 212.777 240.369 205.58 253.406 196.385C266.443 187.19 273.639 177.502 273.639 177.502L329.235 98.2386Z" fill="#EEFAFC" stroke="#A3BFC6" stroke-width="3" stroke-linecap="round"/>
<path fill-rule="evenodd" clip-rule="evenodd" d="M298.487 211.268L238.247 166.483L318.083 97.3827L214.591 157.386L160.603 131.975C160.603 131.975 194.651 111.844 249.525 98.4535C304.399 85.0633 335.555 82.4291 335.555 82.4291C335.555 82.4291 336.29 110.675 322.849 152.814C309.408 194.952 298.487 211.268 298.487 211.268Z" fill="#EEFAFC" stroke="#A3BFC6" stroke-width="3" stroke-linecap="round"/>
</svg>
