<svg width="750" height="76" viewBox="0 0 750 76" fill="none" xmlns="http://www.w3.org/2000/svg">
<path fill-rule="evenodd" clip-rule="evenodd" d="M75.1303 0C33.6523 0 0 33.6108 0 75.0718V0H75.1303ZM674.87 0H750V75.0718C750 33.6108 716.348 0 674.87 0ZM595.556 0H154.444C160.394 0 165.292 4.67753 165.566 10.6206C167.076 43.3986 183.889 59.7877 216.003 59.7877C242.195 59.7877 309.242 59.8816 376 59.9767C442.156 59.8816 508.597 59.7877 534.553 59.7877C566.377 59.7877 583.038 43.3986 584.535 10.6206C584.806 4.67753 589.66 0 595.556 0Z" fill="white"/>
</svg>
