<svg width="126" height="41" viewBox="0 0 126 41" fill="none" xmlns="http://www.w3.org/2000/svg">
<path fill-rule="evenodd" clip-rule="evenodd" d="M47.1429 2.60649C47.1429 1.16697 48.2941 0 49.7143 0C51.1344 0 52.2857 1.16697 52.2857 2.60649V12.9323H58.1276C59.1617 12.9323 60 14.0903 60 15.5188C60 16.9473 59.1617 18.1053 58.1276 18.1053H52.2857V38.3459C52.2857 39.7854 51.1344 40.9524 49.7143 40.9524C48.2941 40.9524 47.1429 39.7854 47.1429 38.3459V15.5188V2.60649ZM0 24.3559C0 33.5219 7.3873 40.9524 16.5 40.9524C20.9006 40.9524 24.8989 39.2196 27.8571 36.3953V38.331C27.8571 39.7787 29.0084 40.9524 30.4286 40.9524C31.8487 40.9524 33 39.7787 33 38.331V24.3634V24.3559V24.3483V24.1753C33 24.135 32.9991 24.095 32.9973 24.0552C32.8379 15.0279 25.5128 7.7594 16.5 7.7594C7.3873 7.7594 0 15.1899 0 24.3559ZM72.0284 40.5213C73.4643 40.5213 74.6283 39.3677 74.6283 37.9447V21.4489C74.8572 15.529 77.7993 12.9125 84.4001 12.9125C85.836 12.9125 87 11.759 87 10.336C87 8.91297 85.836 7.7594 84.4001 7.7594C75.057 7.7594 69.7494 12.5065 69.4286 21.4011V37.9447C69.4286 39.3677 70.5926 40.5213 72.0284 40.5213ZM16.5 35.7794C22.7724 35.7794 27.8571 30.6649 27.8571 24.3559C27.8571 18.0468 22.7724 12.9323 16.5 12.9323C10.2276 12.9323 5.14286 18.0468 5.14286 24.3559C5.14286 30.6649 10.2276 35.7794 16.5 35.7794ZM109.5 40.9524C100.387 40.9524 93 33.5219 93 24.3559C93 15.1899 100.387 7.7594 109.5 7.7594C118.613 7.7594 126 15.1899 126 24.3559C126 33.5219 118.613 40.9524 109.5 40.9524ZM120.857 24.3559C120.857 30.6649 115.772 35.7794 109.5 35.7794C103.228 35.7794 98.1429 30.6649 98.1429 24.3559C98.1429 18.0468 103.228 12.9323 109.5 12.9323C115.772 12.9323 120.857 18.0468 120.857 24.3559Z" fill="white"/>
</svg>
