<svg width="294" height="95" viewBox="0 0 294 95" fill="none" xmlns="http://www.w3.org/2000/svg">
<path fill-rule="evenodd" clip-rule="evenodd" d="M110 6.04645C110 2.70709 112.686 0 116 0C119.314 0 122 2.70709 122 6.04645V30H135.631C138.044 30 140 32.6863 140 36C140 39.3137 138.044 42 135.631 42H122V88.9535C122 92.2929 119.314 95 116 95C112.686 95 110 92.2929 110 88.9535V36V6.04645ZM0 56.5C0 77.763 17.237 95 38.5 95C48.7681 95 58.0974 90.9803 65 84.4286V88.9189C65 92.2774 67.6863 95 71 95C74.3137 95 77 92.2774 77 88.9189V56.5V56.0811C77 55.9876 76.9979 55.8947 76.9938 55.8022C76.6216 34.8612 59.5299 18 38.5 18C17.237 18 0 35.237 0 56.5ZM65 56.5C65 41.8645 53.1355 30 38.5 30C23.8645 30 12 41.8645 12 56.5C12 71.1355 23.8645 83 38.5 83C53.1355 83 65 71.1355 65 56.5ZM168.066 94C171.417 94 174.133 91.324 174.133 88.023V49.7564C174.667 36.0237 181.532 29.9541 196.934 29.9541C200.284 29.9541 203 27.2781 203 23.977C203 20.676 200.284 18 196.934 18C175.133 18 162.749 29.0121 162 49.6456V88.023C162 91.324 164.716 94 168.066 94ZM255.5 95C234.237 95 217 77.763 217 56.5C217 35.237 234.237 18 255.5 18C276.763 18 294 35.237 294 56.5C294 77.763 276.763 95 255.5 95ZM282 56.5C282 71.1355 270.136 83 255.5 83C240.864 83 229 71.1355 229 56.5C229 41.8645 240.864 30 255.5 30C270.136 30 282 41.8645 282 56.5Z" fill="white"/>
</svg>
