<svg width="500" height="300" viewBox="0 0 500 300" fill="none" xmlns="http://www.w3.org/2000/svg">
<path fill-rule="evenodd" clip-rule="evenodd" d="M156.959 215.585C159.535 216.082 162.436 218.007 164.94 220.947C168.531 219.527 171.997 219.189 174.504 219.959C174.007 222.535 172.082 225.436 169.142 227.94C170.562 231.531 170.9 234.997 170.129 237.504C167.554 237.007 164.653 235.082 162.149 232.142C158.558 233.562 155.092 233.9 152.585 233.129C153.082 230.554 155.007 227.653 157.947 225.149C156.527 221.558 156.189 218.092 156.959 215.585ZM354.028 109.717C355.931 113.001 356.582 117.996 355.749 123.522C360.709 126.095 364.368 129.559 365.906 133.028C362.622 134.931 357.626 135.582 352.101 134.749C349.527 139.709 346.064 143.368 342.595 144.906C340.692 141.622 340.04 136.626 340.874 131.101C335.914 128.527 332.255 125.064 330.717 121.595C334.001 119.692 338.996 119.041 344.522 119.874C347.095 114.914 350.559 111.255 354.028 109.717ZM130.745 107.366C132.869 108.904 134.685 111.875 135.712 115.598C139.567 115.829 142.85 116.987 144.797 118.745C143.258 120.869 140.287 122.685 136.565 123.712C136.334 127.567 135.176 130.85 133.418 132.797C131.294 131.258 129.478 128.287 128.451 124.565C124.596 124.334 121.313 123.176 119.366 121.418C120.904 119.294 123.875 117.478 127.598 116.451C127.829 112.596 128.987 109.313 130.745 107.366Z" fill="#D5EDF1"/>
<path fill-rule="evenodd" clip-rule="evenodd" d="M248.769 208.518C245 197 275.892 202 279 202L280.095 202.626C286.363 206.272 316.796 224.833 298.593 231.458C286.611 235.82 273.898 233.993 264.01 227.614C257.207 223.225 251.471 216.774 248.769 208.518ZM281.149 158.139C289.17 158.086 299.601 161.907 302.474 169.801L313 194L295.982 198.891L294.65 195.697C284.24 170.667 279.74 158.148 281.149 158.139Z" fill="white"/>
<path d="M248.769 208.518L250.195 208.051L248.769 208.518ZM279 202L279.745 200.698L279.399 200.5L279 200.5L279 202ZM280.095 202.626L280.849 201.329L280.839 201.324L280.095 202.626ZM264.01 227.614L263.197 228.875L264.01 227.614ZM281.149 158.139L281.159 159.639L281.149 158.139ZM302.474 169.801L301.065 170.314L301.08 170.357L301.099 170.399L302.474 169.801ZM313 194L313.414 195.442L315.057 194.969L314.375 193.402L313 194ZM295.982 198.891L294.597 199.468L295.112 200.701L296.396 200.332L295.982 198.891ZM294.65 195.697L293.265 196.273L293.265 196.274L294.65 195.697ZM250.195 208.051C249.817 206.896 249.926 206.141 250.196 205.61C250.484 205.043 251.078 204.487 252.111 203.994C254.22 202.989 257.551 202.533 261.343 202.439C265.079 202.346 269.049 202.606 272.304 202.893C273.929 203.036 275.364 203.185 276.504 203.3C277.595 203.41 278.516 203.5 279 203.5L279 200.5C278.707 200.5 277.983 200.434 276.804 200.315C275.675 200.201 274.216 200.05 272.567 199.905C269.273 199.614 265.173 199.343 261.268 199.44C257.42 199.536 253.54 199.99 250.82 201.286C249.439 201.945 248.213 202.888 247.521 204.252C246.81 205.652 246.779 207.26 247.343 208.984L250.195 208.051ZM278.255 203.302L279.35 203.928L280.839 201.324L279.745 200.698L278.255 203.302ZM279.34 203.923C282.472 205.744 291.505 211.218 297.477 217.002C298.962 218.44 300.224 219.866 301.152 221.23C302.088 222.604 302.628 223.832 302.779 224.884C302.922 225.881 302.723 226.745 302.099 227.543C301.438 228.389 300.209 229.274 298.08 230.049L299.106 232.868C301.528 231.986 303.329 230.842 304.463 229.39C305.635 227.892 305.996 226.19 305.748 224.458C305.508 222.781 304.705 221.117 303.632 219.541C302.551 217.954 301.138 216.371 299.564 214.847C293.304 208.784 283.986 203.154 280.849 201.329L279.34 203.923ZM298.08 230.049C286.554 234.244 274.331 232.487 264.823 226.354L263.197 228.875C273.465 235.498 286.667 237.395 299.106 232.868L298.08 230.049ZM264.823 226.354C258.253 222.115 252.77 215.922 250.195 208.051L247.343 208.984C250.171 217.626 256.161 224.336 263.197 228.875L264.823 226.354ZM281.159 159.639C284.952 159.614 289.335 160.51 293.085 162.338C296.842 164.17 299.806 166.854 301.065 170.314L303.884 169.288C302.27 164.853 298.581 161.68 294.399 159.641C290.21 157.599 285.367 156.611 281.139 156.639L281.159 159.639ZM301.099 170.399L311.624 194.598L314.375 193.402L303.85 169.202L301.099 170.399ZM312.586 192.558L295.567 197.449L296.396 200.332L313.414 195.442L312.586 192.558ZM297.366 198.313L296.034 195.119L293.265 196.274L294.597 199.468L297.366 198.313ZM296.035 195.121C290.832 182.611 287.116 173.251 284.879 167.028C283.757 163.907 283.024 161.619 282.657 160.132C282.468 159.368 282.402 158.914 282.397 158.696C282.395 158.564 282.419 158.676 282.334 158.875C282.284 158.993 282.172 159.196 281.943 159.37C281.696 159.558 281.413 159.637 281.159 159.639L281.139 156.639C280.797 156.641 280.438 156.745 280.126 156.983C279.832 157.206 279.667 157.482 279.574 157.699C279.406 158.095 279.392 158.501 279.398 158.761C279.411 159.327 279.546 160.048 279.744 160.851C280.15 162.496 280.928 164.904 282.056 168.043C284.319 174.338 288.058 183.754 293.265 196.273L296.035 195.121Z" fill="#A3BFC6"/>
<path fill-rule="evenodd" clip-rule="evenodd" d="M291.446 55.9492C296.939 56.5265 300.924 61.4472 300.346 66.9398L285.712 206.173C285.135 211.665 280.214 215.65 274.722 215.073L195.16 206.71C189.667 206.133 185.683 201.213 186.26 195.72L200.894 56.4869C201.471 50.9943 206.392 47.0097 211.885 47.587L291.446 55.9492ZM287.053 78.6142L212.464 70.7746L199.921 190.117L274.51 197.957L287.053 78.6142Z" fill="#EEFAFC"/>
<path d="M300.346 66.9398L298.854 66.783L300.346 66.9398ZM285.712 206.173L287.204 206.33L285.712 206.173ZM287.053 78.6142L288.545 78.771L288.702 77.2792L287.21 77.1224L287.053 78.6142ZM212.464 70.7746L212.621 69.2828L211.129 69.126L210.972 70.6178L212.464 70.7746ZM199.921 190.117L198.429 189.96L198.272 191.452L199.764 191.609L199.921 190.117ZM274.51 197.957L274.353 199.449L275.845 199.605L276.001 198.114L274.51 197.957ZM291.29 57.441C295.958 57.9317 299.345 62.1143 298.854 66.783L301.838 67.0965C302.502 60.7801 297.92 55.1214 291.603 54.4575L291.29 57.441ZM298.854 66.783L284.22 206.016L287.204 206.33L301.838 67.0965L298.854 66.783ZM284.22 206.016C283.73 210.685 279.547 214.072 274.879 213.581L274.565 216.565C280.881 217.228 286.54 212.646 287.204 206.33L284.22 206.016ZM274.879 213.581L195.317 205.219L195.003 208.202L274.565 216.565L274.879 213.581ZM195.317 205.219C190.648 204.728 187.261 200.545 187.752 195.877L184.768 195.563C184.104 201.88 188.687 207.538 195.003 208.202L195.317 205.219ZM187.752 195.877L202.386 56.6437L199.402 56.3301L184.768 195.563L187.752 195.877ZM202.386 56.6437C202.877 51.975 207.059 48.5881 211.728 49.0788L212.041 46.0952C205.725 45.4313 200.066 50.0136 199.402 56.3301L202.386 56.6437ZM211.728 49.0788L291.29 57.441L291.603 54.4575L212.041 46.0952L211.728 49.0788ZM287.21 77.1224L212.621 69.2828L212.307 72.2663L286.896 80.106L287.21 77.1224ZM210.972 70.6178L198.429 189.96L201.412 190.274L213.956 70.9314L210.972 70.6178ZM199.764 191.609L274.353 199.449L274.666 196.465L200.077 188.625L199.764 191.609ZM276.001 198.114L288.545 78.771L285.561 78.4574L273.018 197.8L276.001 198.114Z" fill="#A3BFC6"/>
<path d="M259.466 63.6486L241.565 61.7671" stroke="#A3BFC6" stroke-width="3" stroke-linecap="round" stroke-dasharray="1 8 10"/>
<path fill-rule="evenodd" clip-rule="evenodd" d="M290.421 176.095C307.365 175.571 311.905 191.057 313.381 195.112C315.476 200.869 316.684 209.937 317.005 222.316L278.255 236.42C272.301 224.642 268.6 215.757 267.151 209.766C266.212 205.886 265.771 201.322 265.828 196.074C265.893 190.024 263.256 184.273 258.625 180.368L246.747 170.351C243.067 167.247 242.619 161.762 245.744 158.069C248.844 154.406 254.333 153.913 258.004 156.967C258.018 156.978 273.27 169.827 273.27 169.827C277.553 173.435 284.816 176.7 290.421 176.095Z" fill="white" stroke="#A3BFC6" stroke-width="3" stroke-linecap="round"/>
<path fill-rule="evenodd" clip-rule="evenodd" d="M277.446 232.441L315.318 215.597C317.835 214.477 320.773 215.552 321.984 217.998L322.091 218.227L324.935 224.746C327.433 230.472 326.045 237.152 321.471 241.408C318.134 244.513 314.013 247.184 309.108 249.42C303.639 251.913 298.111 253.448 292.526 254.024C286.174 254.679 280.123 251.163 277.547 245.32L274.842 239.184C273.704 236.603 274.869 233.587 277.446 232.441Z" fill="#EEFAFC" stroke="#A3BFC6" stroke-width="3" stroke-linecap="round"/>
<path d="M218.174 100.453C213.876 83.2115 196.71 72.6314 179.822 76.8421C162.934 81.0528 152.745 98.453 157.044 115.695C160.577 129.862 173.002 138.68 189.072 140.195L213.177 142.224C217.155 142.559 219.032 139.508 216.92 136.121L212.169 128.501C218.343 120.749 220.66 110.421 218.174 100.453Z" fill="white" stroke="#A3BFC6" stroke-width="3" stroke-linecap="round"/>
<path fill-rule="evenodd" clip-rule="evenodd" d="M199.826 100.537L184.587 119.146L176.687 113.684" fill="white"/>
<path d="M199.826 100.537L184.587 119.146L176.687 113.684" stroke="#A3BFC6" stroke-width="3" stroke-linecap="round"/>
</svg>
